/* XPM */
static char *_5e7e531972f408594d8bff3a7451b9cmnUz5MPvtvDcJOZE[] = {
/* columns rows colors chars-per-pixel */
"50 50 5 1 ",
"  c #74CF44",
". c #7BD34A",
"X c #85D853",
"o c #8FDE5C",
"O c #9CE667",
/* pixels */
"                    .XOOOX                        ",
"                    .XOOOX.                       ",
"                     XooooX..        .XX..        ",
"                     .XXoooXX       .XooX.        ",
"                       .XoOoX.      .oOOo.        ",
"                        XOOOX.      .oOOoX        ",
"                        XOOOo.      .oOOoX        ",
"                        XOOOX.      .oOOo.        ",
"        ......          XoOoX.      .XoOo.        ",
"        .XooX.          .XXX.        XXXX.        ",
"        .oOoo.           ...         ...          ",
"        XoOOo.                                    ",
"        .oOOo.                                    ",
"        XoOOo.                                    ",
"        .oOOX.                 ...                ",
"        .XoXX.                .XXXX        .      ",
"         ....                 .oOoX.              ",
"                             ..oOOoX.             ",
"                              .XoooXX..           ",
"                               .XXoOoX.           ",
"                                 XoOOo.           ",
"        .XXX.                    .oOOo.           ",
"        .XooX.                   .oOOo.           ",
". .     .oOOo.                   XoOOo.           ",
"XXX.    .XoooXX..                .XooX.           ",
"OoXX.   ..XXoooX.                ..XX..           ",
"OOOX.      XoOOo.                  .              ",
"OOOX.      .oOOoX                                 ",
"OOOo.      .oOOoX                                 ",
"OOOX.      .oOOo.                                 ",
"OOoX.      .Xooo.       ..X..                     ",
"oXX.       .XXX..       XXoXX                     ",
"...          ...        XoOoX.                    ",
"                        XOOOX.                    ",
"                        XOOOo.                    ",
"                        XOOOX.     .              ",
"                        XoOoX.       ....         ",
"                        .XoX.        XXoX.        ",
"                        .....       .XoOo.        ",
"...                                .XoOoo.        ",
"ooX.                             .XXooooX.        ",
"OOoX                             .ooOoX..         ",
"OOoX..                           .oOOo.           ",
"ooooXX.           .              XoOOo.           ",
"XXXoOoX.                         .oOOo.           ",
" .XoOOX.                         .oOOo.           ",
"  XoOOo.                         .XooX.           ",
"  XoOOX.    .                    .....            ",
"  XoOOX.                           . .            ",
"  XoOOX.                                          "
};
