/* XPM */
static char *_22c170399164425b7e1b01d1eb01546HA6KjFonaF5bGRdC[] = {
/* columns rows colors chars-per-pixel */
"50 50 114 2 ",
"   c #75CF45",
".  c #72CE44",
"X  c #378936",
"o  c #368C37",
"O  c #369239",
"+  c #369F3C",
"@  c #75CE44",
"#  c #74CE44",
"$  c #75CF44",
"%  c #74CF44",
"&  c #76D145",
"*  c #37A33E",
"=  c #377E2F",
"-  c #369A3B",
";  c #36762B",
":  c #368331",
">  c #37AF42",
",  c #378F37",
"<  c #376925",
"1  c #37A940",
"2  c #37AC41",
"3  c #36963A",
"4  c #366E27",
"5  c #377A2D",
"6  c #3EC94F",
"7  c #4B532C",
"8  c #377228",
"9  c #39B344",
"0  c #368633",
"q  c #37A63F",
"w  c #77D048",
"e  c #3EC54D",
"r  c #3DC24B",
"t  c #87DA55",
"y  c #475536",
"u  c #72CB43",
"i  c #69B041",
"p  c #3A9B3D",
"a  c #77D445",
"s  c #67CE47",
"d  c #98E365",
"f  c #39B846",
"g  c #8DDD5B",
"h  c #3C8339",
"j  c #3CBB48",
"k  c #445A31",
"l  c #5ACC49",
"z  c #6DC442",
"x  c #486037",
"c  c #3DBF4A",
"v  c #3D642B",
"b  c #3E933A",
"n  c #6ECF46",
"m  c #81D751",
"M  c #7BD24A",
"N  c #67C142",
"B  c #4DC74B",
"V  c #425B26",
"C  c #59863B",
"Z  c #3ABE49",
"A  c #3A6526",
"S  c #94E160",
"D  c #3DAE44",
"F  c #4EA73D",
"G  c #446431",
"H  c #62B940",
"J  c #3F7939",
"K  c #7DD54C",
"L  c #4E9434",
"P  c #506B3C",
"I  c #514B2A",
"U  c #439D3B",
"Y  c #55AB3C",
"T  c #3F7331",
"R  c #426A38",
"E  c #74CB46",
"W  c #A4EB6E",
"Q  c #484C2F",
"!  c #5D913F",
"~  c #44C94E",
"^  c #3F8C3B",
"/  c #3E5E2E",
"(  c #71C843",
")  c #41A441",
"_  c #3CB547",
"`  c #9DE868",
"'  c #50803A",
"]  c #6DBC45",
"[  c #535930",
"{  c #51CA4D",
"}  c #417239",
"|  c #49B241",
" . c #5BB840",
".. c #49A03B",
"X. c #61B13C",
"o. c #60A23D",
"O. c #617D39",
"+. c #48BC48",
"@. c #56B340",
"#. c #6DC944",
"$. c #64CA47",
"%. c #5BC146",
"&. c #3A6B2D",
"*. c #546232",
"=. c #7FCC51",
"-. c #72AF4A",
";. c #6D944C",
":. c #89C15B",
">. c #70D25C",
",. c #46812C",
"<. c #7CBD52",
"1. c #68873F",
"2. c #699D3A",
"3. c #91D463",
/* pixels */
"% % % # # # % % % % % %   $ $ $     . . w t d W d m   u . # # % %       $ $ $ $ $ @ @ @ # # # # # # ",
"% % % # # # % % % % % %   $ $ $     . . w t d ` S t w # # # # % % % % % . . . . . # @ @ # # # # # # ",
"% % % # # # % % % % %   $ $ $       . . w m g S S t m K w   # $   . n s s s s s n . @ @ @ # # # # # ",
"# # # %     @ @ @ $ $ $ $ $ $     % % # & M m t g S g t m w @ & & n s l { { { l $.n @ @ $ $ % % % % ",
"# # #       @ @ @ $ $ % % % % % % % % % %   w M t S ` S t w # # . s l B ~ 6 ~ B l s . @ $ $ $ % % % ",
"# # # %     $ @ @ @ % . n s s n .       % . . w t d W d t M u z N %.B ~ 6 6 6 ~ { l s n % $ & $ % % ",
"# # # % %   $ $ @ @ . n $.l l s n $ $ $ % . . w t d W ` g M z H Y | +.e 6 6 6 6 ~ { l s n & & $   @ ",
"# # # % % % $ $ $ $   n l B B l s % $ $ $ # . w t S ` d t w N Y U p D c 6 6 6 6 6 ~ B l s . @ @ @ @ ",
"# # # % % % % $ w M K w l ~ e B l s . % $ @ # w m g S g =.z @...p - 1 _ c c r r e 6 ~ B %.N z u #   ",
"% % % # # # #   M t g m $.+.j c B l s n $ @ @ w K t t =.] @.F ) + + * q 2 9 _ j r 6 e +.| Y H z E & ",
"% % % @ @ # . @ K g d g >.+._ f r B l s . @ @ @ w M w N Y U p + q * + - - * 2 9 Z e r _ ) U Y N u & ",
"% % % @ @ # .   m S ` d >.+.9 f r ~ { l s n %   & & u H .., o - * * - O O - q > f j j D ) U Y N u & ",
"% $ $ $ $ # .   m S W d >.B j Z e 6 ~ { l s n & a a u X.L = : o - - 3 , O - q 2 2 2 D ) F @.H z .   ",
"      $ $ # .   m S ` d >.{ e r e 6 6 ~ B l s % & a u X.L 5 ; : , O O , O + q 1 * - p F  .N ( u # % ",
"      $ $ % %   M t 3.g >.{ e e e 6 6 6 ~ B %.N z #.z X.L = ; = 0 X 0 X , - * * - O b F  .#.. % % % ",
"@         $ & & w E <.] %.+.c r e 6 6 6 r +.F o.Y  . .| U , : = = 5 5 5 : , - - O o , U @.%.$.n .   ",
"@ @ @     & & $ z H F ) ) D f Z e 6 6 6 r D b ,.^ ..| D 1 + O : ; 8 4 8 ; : o O , o , p ) | %.$.. & ",
"@ @       # u #.H F b O - * 2 _ c e 6 6 r 1 , = : 3 q 2 1 * 3 : ; 4 4 4 ; = o O O O 3 + 1 9 +.$.. & ",
"@ @   & # #.N  .Y U , o O - * 2 f c e 6 e _ * O O - + + - O o : 5 ; ; ; 5 0 O - + * 1 > 9 j B $.% a ",
"    & & . N @.F U b , o , O - * 2 _ c e e r j 9 1 + 3 o : = 5 = : : : : X O + q > _ j Z Z r { s % & ",
"    & & . N F b X X X X X X , - * 2 f c e e r j D p X = ; 8 ; = X o o , O - q > f c e e r e B $.#.( ",
". . $ & E H L h T 5 = = = = : o 3 * 2 f j _ D ) ^ h T T 8 ; = : o O 3 - + * 2 > f Z c Z _ _ | @. . .",
". . % & u i ! } G &.8 8 8 8 ; = o 3 * > > ) ^ J R x G G T = 0 X o O - * 1 1 2 > 9 f 9 > q + p U U ..",
"w w & a E i ! P G v &.4 4 4 ; = X 3 * 2 1 b J R y 7 7 k T h X X X , - * 1 1 1 1 2 1 q + 3 O O b b b ",
"t m m K   ] o.C ' T ; ; ; = : , p * 2 9 > p ^ } x 7 I [ G T J = = 0 o O - + + + - 3 O , o o b U ....",
"d S g m w ( ] i o.L h : X O - q D _ c c j D * ^ J x y 7 [ k G &.8 ; 5 = : o O O o : = : 0 , U Y  .H ",
"W ` S t w u ( z H F b , 3 + 2 _ c e e e r j 9 * ^ } x y 7 7 7 v < 4 4 8 ; : X X : ; ; 5 0 b F H #.. ",
"W W d t M u z H Y ..b O 3 + 1 9 Z r c j _ 9 2 * O h } R x k G v 8 ; ; 5 = : X X : = = : o p Y N % a ",
"W W ` g M z X.L L ^ , O O 3 + 1 9 f 9 1 * + - - 3 O ^ h J T T 5 = : X , , , o o o , O 3 - * @.N   a ",
"W W d t E X.L ,.; = X o , O 3 + 1 2 q p 3 O O O - + * p O X X 0 X , - * * - O O 3 + q q 1 D | N #.@ ",
"` d g =.i o.,.8 4 ; = 0 o O - * 1 2 q + p p p p q > 9 2 + O o o , 3 * 2 2 * - - + 1 > > 2 > |  .H N ",
"g t <.-.! ' T < < 4 ; = o - * 1 2 > > D D D D 9 f Z Z 9 * 3 o o , 3 * 2 > 2 q * 1 2 > > > > D F F F ",
"K w i ! P G v < < < 4 5 X + 1 2 2 > 9 j r r r c r e r _ * O X X o O + 1 2 2 1 1 1 2 2 2 2 1 * p b b ",
"a ( i C G / v 4 8 8 8 5 0 3 + + + * > j r r c j j _ D ) 3 X 0 : 0 X O - + + + + * q q 1 q * 3 X h J ",
"a ( X.' v v &.5 = = = = : 0 0 0 0 , + > f f D q p b ^ h h = 5 5 5 = : 0 0 X X o O - + + + - X J R R ",
"a u X.L T 4 ; 0 X X X : = ; 8 8 8 5 , * 2 1 + 3 h J R R &.4 4 4 4 8 8 8 ; 8 8 5 : o O 3 O o J R x x ",
"a u H L ,.= = 0 X o o X = ; 4 4 4 ; X + 1 1 + 3 h J R G v A A A A A < < < < < 4 ; = h h h h J } P P ",
"% u z X.Y L ^ : : 0 o o 0 = 5 ; ; = , + 2 > 2 1 p ^ h } G V V V / v A < < < < < &.T } } } } ' C ! ! ",
"% . u ( N Y L 5 ; = X o o X 0 0 0 X 3 * 2 9 j j _ 2 p h G 7 7 7 k / v < < < < < v G x x x R ' o.i ] ",
"K M w E ] o.L 8 4 5 : X o o , , , 3 - * 1 9 Z r Z f 2 b ' *.[ [ y k / v A < A v / k y y y x C i ( a ",
"g t =.-.2.C ,.4 4 8 5 = 0 o O 3 - + + + * 2 _ Z Z f 9 ) L C O.*.7 Q k / / / / / k Q Q Q Q x C i # a ",
"` d :.;.O.*.v < 4 4 8 ; = X O - * q + - 3 + 1 9 9 > > | @.i 2.O.[ Q Q y k k k k 7 I I Q y x C i u a ",
"W d :.1.[ 7 V A A < < 8 5 : o 3 + + - , o 3 + q q * q | %.z i 1.*.[ *.P P P P x *.[ [ [ x P ! i u a ",
"d 3.<.1.[ Q Q V V A < 4 ; 5 : X , , X : : X 3 - 3 o ^ ..H #.z 2.1.O.1.;.;.;.! C C O.O.C C ! o.] E & ",
"t M -.C x Q Q 7 V V A 4 4 8 ; ; 5 5 ; ; ; : o O h J } ' X.( ( ] i -.<.:.:.<.-.i i i i i i i ] ( .   ",
"a E i ! P x 7 I 7 V A < < < < < < < < < 4 ; : h J R P C o.z % . E M g d d t M E u u u u u E . # # # ",
"% u ] -.;.1.P [ 7 k / v v V V V V V V / v &.T J J ' C ! i ( & & a K t S S t K a & a a a a & & % # # ",
". # =.=.:.-.1.*.y y k k k 7 7 7 7 7 7 k k / G R ' ! i ] z E   & & M K m m K w & % & & & &     % # # ",
". w m S d :.;.P y y y y 7 I I I I I 7 y y y y x ' o.z #   @ @       & w w   # # # # # # # # # # # # ",
"u w t ` W 3.;.P y y y y 7 I I I I I I y y y y x ' i E a a   @ @   % . . . . . # # # # # # # # # # # "
};
