/* XPM */
static char *_f59bfdd49304fbed38e2e78caa5e5fe0mNcTCIrOgGL8IXX[] = {
/* columns rows colors chars-per-pixel */
"50 50 256 2 ",
"   c #74CF44",
".  c #75CF44",
"X  c #72CD43",
"o  c #78D148",
"O  c #75CF45",
"+  c #74CF45",
"@  c #73CE43",
"#  c #74CE44",
"$  c #74CE45",
"%  c #75CE44",
"&  c #7DD44C",
"*  c #71D245",
"=  c #7AD24A",
"-  c #73D144",
";  c #77D047",
":  c #7ED54D",
">  c #71CF45",
",  c #8EDE5B",
"<  c #75D045",
"1  c #89DB57",
"2  c #80D450",
"3  c #8BDD59",
"4  c #9EE769",
"5  c #75CF46",
"6  c #84D852",
"7  c #71CE40",
"8  c #82D751",
"9  c #92E05E",
"0  c #96E362",
"q  c #99E465",
"w  c #76D345",
"e  c #94E160",
"r  c #8DDF5B",
"t  c #71D142",
"y  c #87DA55",
"u  c #7BC944",
"i  c #73CA44",
"p  c #75D544",
"a  c #9CE667",
"s  c #7FC443",
"d  c #76CA45",
"f  c #99675A",
"g  c #59873D",
"h  c #7BD64A",
"j  c #8FB743",
"k  c #5D943E",
"l  c #7ECD42",
"z  c #A1E86B",
"x  c #77CD44",
"c  c #4C683A",
"v  c #A1A344",
"b  c #E7B42D",
"n  c #87BB45",
"m  c #73D246",
"M  c #75D347",
"N  c #9BDC5F",
"B  c #67AE40",
"V  c #76C647",
"C  c #72A34C",
"Z  c #AB9C42",
"A  c #506F3B",
"S  c #827065",
"D  c #7FD74F",
"F  c #8ED657",
"G  c #6DB843",
"H  c #6EBF42",
"J  c #69B341",
"K  c #7B5D4C",
"L  c #9E685E",
"P  c #7FC847",
"I  c #BD9943",
"U  c #9CBD3C",
"Y  c #78C142",
"T  c #99847C",
"R  c #758056",
"E  c #A7EC71",
"W  c #84DD54",
"Q  c #619E40",
"!  c #9BAD43",
"~  c #48573A",
"^  c #6FBC42",
"/  c #936658",
"(  c #90BE4A",
")  c #71C545",
"_  c #94AB42",
"`  c #B59741",
"'  c #AF9341",
"]  c #ACA73F",
"[  c #8C9051",
"{  c #9FB64F",
"}  c #CBB934",
"|  c #CC9E35",
" . c #CED871",
".. c #7ACA4B",
"X. c #88756E",
"o. c #936453",
"O. c #845D43",
"+. c #AF8E43",
"@. c #53573D",
"#. c #A4E067",
"$. c #A5C456",
"%. c #A5C65F",
"&. c #58683E",
"*. c #AAAC4D",
"=. c #826551",
"-. c #99CC41",
";. c #7CAA4E",
":. c #B2D362",
">. c #9F9840",
",. c #A5D359",
"<. c #DCBC35",
"1. c #BFA699",
"2. c #9A7456",
"3. c #A4C439",
"4. c #7FB24B",
"5. c #7ECF50",
"6. c #CEBDA9",
"7. c #CFB35D",
"8. c #DEAB31",
"9. c #C8B032",
"0. c #9FA977",
"q. c #C3A150",
"w. c #E5E07E",
"e. c #E6CE6B",
"r. c #A3DA7B",
"t. c #ECB845",
"y. c #C67E3A",
"u. c #7A6461",
"i. c #7FB359",
"p. c #A38B89",
"a. c #B6A39D",
"s. c #A8E185",
"d. c #D4F0BE",
"f. c #A9854A",
"g. c #AC805B",
"h. c #B7947F",
"j. c #B28975",
"k. c #645A45",
"l. c #8DC94D",
"z. c #715B43",
"x. c #896255",
"c. c #AFE166",
"v. c #547B3C",
"b. c #6A923B",
"n. c #79CE47",
"m. c #6F6D3B",
"M. c #8C6052",
"N. c #766A50",
"B. c #806A48",
"V. c #686646",
"C. c #89D050",
"Z. c #926F5A",
"A. c #977A43",
"S. c #8ACA3D",
"D. c #C7AF9F",
"F. c #6EAC45",
"G. c #C2C436",
"H. c #7A8849",
"J. c #C1C397",
"K. c #CFA93D",
"L. c #BBAF37",
"P. c #81D049",
"I. c #6B7B4C",
"U. c #799438",
"Y. c #C0913D",
"T. c #AEB654",
"R. c #B2A192",
"E. c #D8AA3E",
"W. c #C39E3C",
"Q. c #89BC62",
"!. c #818D61",
"~. c #CB4925",
"^. c #8E9C6E",
"/. c #DE4834",
"(. c #D5C9B9",
"). c #BC2C1C",
"_. c #DED6CA",
"`. c #E4DAD6",
"'. c #C6B3B0",
"]. c #CFBDB9",
"[. c #ECF1DE",
"{. c #8CA051",
"}. c #9F7967",
"|. c #7CC650",
" X c #79B845",
".X c #5F8C40",
"XX c #645B3E",
"oX c #496339",
"OX c #B5AD4F",
"+X c #99BB45",
"@X c #C9D050",
"#X c #B8BD37",
"$X c #9CD05A",
"%X c #6FB141",
"&X c #688844",
"*X c #9A8260",
"=X c #806E31",
"-X c #C4C262",
";X c #90873F",
":X c #9CCE71",
">X c #77B146",
",X c #8B9A3A",
"<X c #A3B97A",
"1X c #9D8C82",
"2X c #F7D45D",
"3X c #D2BF45",
"4X c #F7C54B",
"5X c #90AE3B",
"6X c #95EA66",
"7X c #EDB93B",
"8X c #E9E588",
"9X c #ECDA74",
"0X c #8E431E",
"qX c #6F6355",
"wX c #C8DAA5",
"eX c #855724",
"rX c #C9C17A",
"tX c #D58448",
"yX c #E55F48",
"uX c #B9682A",
"iX c #878F32",
"pX c #C78F52",
"aX c #D13127",
"sX c #CFE6B3",
"dX c #A94F21",
"fX c #A79891",
"gX c #E7E8D5",
"hX c #93DB5D",
"jX c #958351",
"kX c #606E37",
"lX c #B3D24B",
"zX c #A2756A",
"xX c #A87B6B",
"cX c #BDC656",
"vX c #83BE53",
"bX c #D9E179",
"nX c #F3C05F",
"mX c #D4D757",
"MX c #CDD062",
"NX c #A7CB41",
"BX c #C2D09B",
"VX c #A6902A",
"CX c #9DEF6E",
"ZX c #B1CD4E",
"AX c #BB7E26",
"SX c #DE9753",
"DX c #E07857",
"FX c #D25E30",
"GX c #9E8F6A",
"HX c #C66D39",
"JX c #9D2D1A",
"KX c #A2291A",
"LX c #64E544",
"PX c #C1CF44",
"IX c #74CF43",
"UX c #75CD48",
/* pixels */
"+ + +       + + + + + + $ # # % . . @ @ o 1 6XCX6XW p t t   . O + + + + + @ @ @ @ $ % % + + +       ",
"+ + +       + + + + + + # # # # . . @   o y N #.N C...d x . . + + + + + + < ; ; 5 O % % + + +       ",
"+ + + +     + + + + + + # # # # .   - - n.l.$.T.T.{ { ( P x   - + + + + ; = 2 2 & o % $ $ + + +     ",
"+ + + + + + + + + + $ $ #       # + - - u 5X' y.y.pXq.*.( u - - + + @ + = 6 , , y = O @ $ $ $ $ $ $ ",
"+ + + + + + + + + $ $ $ #       $ + * * s ,XuX~./.yXDXpX{ P * * + + @ + & 3 q q , : 5 @ @ $ $ $ $ $ ",
"+ + + + + + + + + # @ @ #     $ $ + m m Y iXdX).aX/.yXtXv s * * +   @ + & , 4 4 9 2 5 @ @ $ $ $ $ $ ",
"$ $ $ $ $ + +     @ @ @ @ # % % % + m M Y iXeXJX).aX/.HX>.s * * +   @ + : , 4 z 9 2 5 X # . % % % % ",
"$ $ $ $ $ $         O O O % % % % % M M Y U.eX0XKX).~.uX>.s m * + + @ + & , a a , : O X # . . % % % ",
"$ $ $ $ $ # #   < = & & = ; % # % % m m Y U.=X0XdX~.FXy.v s m * + + @ + = 1 e e 1 & % @ # . . % % % ",
"+ + + $ + # @ O = 6 1 1 8 o % # # $ m + u 5XVXAXy.tXSXq.{ P > > + $ @ $ o 2 y y 8 o % # # % % % % % ",
"+ + +       @ O : 3 0 0 1 = # X # $ > > l U 9.8.t.nXe. .,.P.> X $ $ $ $ 5 o = = o 5 # # $ $ $ % % % ",
"+ + +       @ O 2 9 4 a , & # X # $ > > l 3.} b 4X2X9X .,.P.> X $ $ $ $ $ $ $ + # # # $ $ $ $ % % % ",
"O + +     IX@ 5 D 9 z 4 , : $ X # $ > > l U L.E.t.4X2XmX,.P.> X X X X $ $ @ @ @ # # $ O O + +       ",
"O O O       @ O 2 9 4 4 , & + X # % - - u j ] W.E.7X7X3XNXl > > $ $ $ $ $ $ $ $ % O O O O O O       ",
"O O O       @ O & 3 0 0 1 & + @ # + - - u j v ` | 8.b } 3.l + M = = ; 5 $ $ % % % O O O O O O       ",
"% O O O O     + = 6 1 1 8 o + > - > * * d n v ' Y.| | L.U u M D y y : ; X X # % % O O O O O .       ",
"% % % O O       < = & & = 5 $     - * * d n v ' Y.Y.I ] j u h 3 0 e y o X X # $ $ + + + # # # % % % ",
"% % % O O O         O + + $ % d u u l l S.+X] I I I I *.+XC.F N #.N F 2 o 5 O $ $ + + + # # # % % % ",
"% % O O O O O   # @ X X @ # d s n j U 3.#X#X9.K.E.7.7.-X:.:.:.:.%.%.$XF 6 : o + @   +     # # $ % % ",
"O O O O + + O % # # X @ > $ u n ! ] L.} <.b b b t.e.9Xw.w.bX .-XOXT.$.N 9 y = + @   .   + + +       ",
"O O O + + + $ % 5 ; o o < 5 s j v ` | 8.b b b b t.e.w.8X8Xw.e.7.q.OX$.#.a r & + @   . . + + +       ",
"# #     +   # O o 2 6 6 : ; s _ Z I W.9.} 9.| W.q.7.rXrX . .MX3XK.K.cXc.4 r : + @ # . . . + +       ",
"# # #   .   # O & 1 9 9 y = s _ Z ` ] U U _ ;XA.2.*XGX0.%.$XZX} 8.<.@Xc.4 r : + @ # % % % % . O O O ",
"o o ; < . IX@ O : , q q r : P j v Z ! n Y C I.qXu.u.X.!.i.P -.G.<.<.@Xc.q 3 & + @ # % % % % % O O O ",
"6 6 2 = < # @ O & y 9 e r y C.( ! ! j u ) C I.qXu.X.T ^.i.V S.3.G.G.lXN , 6 = + @ # % % % % O O O O ",
"0 e 3 D ; @ @ O o & 8 1 r 9 hXF ( n s x ) C R u.X.p.R.<XQ...l S.-.-.-.6 8 & ;   # % % % % O O O + + ",
"z 4 e y o @ @ % % O ; 2 , q a , 2 x IXIXV C R S T a.6.J.:X5.@ x l l n.; ; < O   # % % % O O O + + + ",
"E E q y o @ X $ # X @ & , 4 4 9 D m t - V C R S p.'.(.wXr.5.X 7 > > > @ @ #     O % % O O O O + + + ",
"E E q y o X X # # X # & , 4 z 9 D m t - V C R S p.]._.sXr.5.7 7 > > > @ @ #   O O     + + + + O . . ",
"E z 0 y o X X # # @ O & , a a , : < t IXV C R X.fX(.gXd.s.2 7 7   . $ $ $ $ O O O       + + + . . . ",
"q 0 , 8 ; @ @ # # @ O = y 9 e 1 & + t - V ;.!.T a._.[.d.s.2 7 7   . $ $ $ % O O O       + + . . . . ",
"1 y 8 & ; # #   # # $ o : 6 6 2 o + t IX..i.^.fX'.`.[.d.s.2 7 7 # $ # % % $ $ + O O O . . % . . . . ",
"= = o ; O +   . . # $ 5 ; o = o 5 $ @ @ ..Q.0.a.].`.[.d.s.2 7 7 # $ % % % % $ $ + O O O % % % . . . ",
"# IX    + + . . . $ $ $     < < O < - - ..Q.0.R.'._.gXsXr.2 7 7 $ $ % % % # # $ $ + O O % % % . . . ",
"@ # # # #   O O O $ #     - w w w w p p UXi.^.1Xa.]._.wXr.2 t t + $ % O % # X X @ $ $ % % . . . O O ",
"O O . # # # O O O $ # # # # # # % % - - V ;.!.X.p.D.(.BX:X5.7 7 + + O O O % $ $ $ $ $ % . . . O O O ",
"+ + $ # # # O < < < . i ) ^ G G G G ^ ^ >XC R S T 1.6.J.<XvXY i $ -   + 5 o = & = 5 $ # . . . O O O ",
"@ @ @ @ # O < w w p w ) J Q k k k k b.b.U.H.N.S T 1.6.J.0.{.;. Xi * t @ o 8 1 1 8 = O #     . O O O ",
"$ $ $ $ $ + O < < w . H Q v.A c c A kXm.=XB.N.S 1X1.6.D.h.*X[ ;.V - t   = 1 e 0 3 & O @ IX    + + + ",
"& = o ; $ i ) H H H ^ B g c ~ ~ @.@.XXz.O.O.=.S T R.D.1.j.}.jX{.n u n.= 8 , 0 0 3 & . @ #     + + + ",
"3 1 6 & $ H B Q k k k g A ~ ~ @.k.z.K O.O.M.x.Z.}.j.h.h.j.g.f.>._ ( l.F 3 r , 3 6 = . # #     + + + ",
"a q 9 6 5 J k v.A A A c oX~ @.k.K x.o.o.o.o./ f L zXxXg.g.f.+.' Z *.$.N 0 r 6 & o ; % # # #   + + + ",
"z a 0 3 = G k A c oXc c c c &.V.=./ f f f f L f f / / 2.f.+.` ' Z *.%.#.a r & % X # % % # # # + + + ",
"9 9 9 r y |.F..Xg g g g g g g I.N.K x./ L L L f M.K K B.A.+.` Z v { ,.#.4 r & @ X X % % % # + + + + ",
"2 8 1 9 e F |.G B B B J J J Q .X&.k.K M.f L L f =.z.XXm.A.+.Z ! j l.N z 4 r & @ X @ # % O O +       ",
"# o 6 e 4 q y n.i X i X + $ ^ Q v.&.V.=.Z.2.2.Z.B.V.&.m.;X>.v j P : r q q 3 & + @ # # # O O O       ",
"X 5 8 e z a 3 h w - w w p w i B k g &XH.[ [ [ [ H.&Xg b.,X_ j s x h W , 3 6 = + @ # # # + O O       ",
"X ; 8 e 4 q 3 h     < w w w X H J B F.>X4.4.4.4.>XF.B %X Xn s u % M h D D = ; .     + + # #   O O O ",
"X ; 8 e 4 q 1 = @ @ O O O O % # i i i d d d d d i i i i d x x %   . < < < < . .   + + + # # # O O O ",
"X ; 8 e 4 q 1 = @ @ O O O O < w w p p p * * * * p p w M m * * -     @ @ @ @   . O + + + # # # O O O "
};
