/* XPM */
static char *_d46bc103e63427ccac56cce1072d331kq3B1fwGY3UPrlEw[] = {
/* columns rows colors chars-per-pixel */
"50 50 256 2 ",
"   c #B9A981",
".  c #B2A480",
"X  c #BAA77E",
"o  c #D6C3AF",
"O  c #77635D",
"+  c #BBAB82",
"@  c #7F6C64",
"#  c #8C8D82",
"$  c #6D5B54",
"%  c #D9C5B3",
"&  c #88766D",
"*  c #B99D75",
"=  c #9D9782",
"-  c #AFA281",
";  c #B5A57F",
":  c #75D045",
">  c #BCA47B",
",  c #B9966E",
"<  c #796660",
"1  c #6B5A52",
"2  c #B4A27C",
"3  c #806E69",
"4  c #B9A57C",
"5  c #B8A67E",
"6  c #919083",
"7  c #7D6962",
"8  c #BAA57D",
"9  c #CCBB9D",
"0  c #DCCAB7",
"q  c #BAB0A1",
"w  c #A42D1C",
"e  c #B9A179",
"r  c #B2926E",
"t  c #C1B08D",
"y  c #A49B83",
"u  c #917F75",
"i  c #8C7B72",
"p  c #BA9870",
"a  c #BC976D",
"s  c #BC9D74",
"d  c #BBA077",
"f  c #705E58",
"g  c #A19A7F",
"h  c #B49673",
"j  c #8E2C20",
"k  c #AE9D79",
"l  c #84716A",
"z  c #97867C",
"x  c #CAC5B2",
"c  c #685C3F",
"v  c #A28F77",
"b  c #DBC6B5",
"n  c #D5BFAC",
"m  c #A69376",
"M  c #989583",
"N  c #932C1F",
"B  c #9D8D79",
"V  c #B1A07B",
"C  c #ABA182",
"Z  c #A49689",
"A  c #ADA080",
"S  c #BA9B72",
"D  c #BCA980",
"F  c #8F8F82",
"G  c #AC8F71",
"H  c #7F7B77",
"J  c #BE9872",
"K  c #BDAC83",
"L  c #C9A78A",
"P  c #D4D1BD",
"I  c #AC9A7A",
"U  c #C5BA9A",
"Y  c #9F9287",
"T  c #BB946B",
"R  c #74615A",
"E  c #68544B",
"W  c #B2A07F",
"Q  c #DBD4BF",
"!  c #A89C8F",
"~  c #BBAC87",
"^  c #907C69",
"/  c #D3B8A2",
"(  c #BCB6A6",
")  c #CFC5A6",
"_  c #908B7E",
"`  c #DCC8B6",
"'  c #4D3B2A",
"]  c #C9B7A7",
"[  c #CDCAB7",
"{  c #70CF3F",
"}  c #81765B",
"|  c #9B8C82",
" . c #AC2E1C",
".. c #A7957A",
"X. c #82837D",
"o. c #97907E",
"O. c #B49C79",
"+. c #7A5348",
"@. c #423323",
"#. c #ACA193",
"$. c #B5AC9B",
"%. c #C2B6A2",
"&. c #9C8A69",
"*. c #BB2E19",
"=. c #B72F1A",
"-. c #968373",
";. c #BEB193",
":. c #C8C3AC",
">. c #86867F",
",. c #908060",
"<. c #D1BCA9",
"1. c #AA896A",
"2. c #ACA599",
"3. c #9A9580",
"4. c #C1B590",
"5. c #A99B75",
"6. c #7C3021",
"7. c #6F6547",
"8. c #928379",
"9. c #9B2D1E",
"0. c #89776F",
"q. c #C7BFA5",
"w. c #9C8970",
"e. c #D4CFB5",
"r. c #A67966",
"t. c #5F4332",
"y. c #B8A786",
"u. c #C5A785",
"i. c #C9AD8E",
"p. c #BEAE89",
"a. c #D4CBAB",
"s. c #7C6F5F",
"d. c #898A83",
"f. c #C4331C",
"g. c #BBAA85",
"h. c #B4A683",
"j. c #BEBAAB",
"k. c #C09D79",
"l. c #C3B694",
"z. c #683424",
"x. c #D9CAB9",
"c. c #74B148",
"v. c #A09080",
"b. c #91836C",
"n. c #A1906D",
"m. c #5C4C40",
"M. c #BA9069",
"N. c #946557",
"B. c #645441",
"V. c #E0D9C2",
"C. c #8A7B59",
"Z. c #BFA57B",
"A. c #A3957E",
"S. c #D0B8A0",
"D. c #AB9A7D",
"F. c #CDB296",
"G. c #B2A898",
"H. c #CDC7AD",
"J. c #ADA08C",
"K. c #7DCF4D",
"L. c #726452",
"P. c #787058",
"I. c #B1C889",
"U. c #6D6760",
"Y. c #892D21",
"T. c #DFCFBB",
"R. c #E1DFC9",
"E. c #853628",
"W. c #866D63",
"Q. c #864C3F",
"!. c #883F33",
"~. c #897565",
"^. c #954535",
"/. c #7A6C4C",
"(. c #799156",
"). c #AD9B86",
"_. c #77746F",
"`. c #AB9372",
"'. c #B4A093",
"]. c #614B3B",
"[. c #B5A88D",
"{. c #896B56",
"}. c #BAAC98",
"|. c #878276",
" X c #987F6D",
".X c #D0361C",
"XX c #88C455",
"oX c #9AB966",
"OX c #BA3C28",
"+X c #ACB178",
"@X c #8AD25E",
"#X c #78443B",
"$X c #AD9A8D",
"%X c #9F9C93",
"&X c #766C66",
"*X c #B9AC8F",
"=X c #AB3926",
"-X c #92938C",
";X c #714B3D",
":X c #855F56",
">X c #9C5243",
",X c #A06B57",
"<X c #938973",
"1X c #BFA589",
"2X c #95875F",
"3X c #998B77",
"4X c #C74F35",
"5X c #D2C5AB",
"6X c #DA8F78",
"7X c #BACB97",
"8X c #544235",
"9X c #C6B39B",
"0X c #9F9479",
"qX c #73594E",
"wX c #5A5A31",
"eX c #6D635D",
"rX c #99DA71",
"tX c #713F34",
"yX c #B44D35",
"uX c #7D8259",
"iX c #A77158",
"pX c #A25D4E",
"aX c #76C947",
"sX c #CF4328",
"dX c #95392D",
"fX c #9C493B",
"gX c #C66748",
"hX c #D56C55",
"jX c #A1CB78",
"kX c #93CD68",
"lX c #9B7A5F",
"zX c #B77356",
"xX c #5C7E31",
"cX c #906F58",
"vX c #85655D",
"bX c #817F70",
"nX c #7AA14F",
"mX c #A6A683",
"MX c #AE6148",
"NX c #B6DF96",
"BX c #BF8962",
"VX c #C59380",
"CX c #D85D45",
"ZX c #DEB39E",
"AX c #AEB1A4",
"SX c #A03A2B",
"DX c #CEDEB5",
"FX c #6D7E42",
"GX c #96A673",
"HX c #919E60",
"JX c #B7BD94",
"KX c #BC9986",
"LX c #ADAE8E",
"PX c #E1A38D",
"IX c #C8B093",
"UX c #DCAB97",
/* pixels */
": : : : { c.xXwXc C.5.V w.W.0.#.P R.Q U ; w.~.l Y x R.x Z & z ( R.R.a.4.I b.@ @  XI +XoXXX{ { { : : ",
": : : : aXc.xXwXc C.5.I w.& u 2.[ V.e.U ; n.^ & Z :.Q x Z i z q Q V.a.t k w.& & -.I +XoXXXK.: : : : ",
": : K.K.XXnXFXc 7.} w...A.v.Z q H.e.) 4.; m  X-.y %.e.q.).-.B }.5Xa.9 K 2 D.v.v.v...5.+XjXrX@XK.: { ",
": : K.XXoXHXuXL.L.s.^ B J.q j.q.q.U 4.p.; k m m A ;.U ;.- m I y.i.i.u.d > t %.q J.B 3XmX7XNXrX@X: { ",
"{ aXXXoX+X5.b.@ O O @ u 2.x P a.U p.g.+   5 ; ;   g.p.~   ; 2 * s p , , Z.9 e.[ G.8.i ! :.DXNXrXK.{ ",
"c.c.oX+X4.[.B l < R O & Z ( x q.l.t p.t t t t t t t p.t t t g.O.G 1.1.G O.;.:.j.! i & | q :.7XjXkX@X",
"(.(.GXJXH.] Z & < f f < i Y #.}.9X9 9 9 9 9 9 9 9 9 9 9 9 9 ;.).B <X<X3Xv.Z ! Y 8.l 3 i | ! LXI.I.I.",
"P.} 3.( P x ! 0.O $ $ f < l z $X9Xn o o o n o o o o n o o n %.#.6 d.>.d.>.|.i 0.l @ @ @ l u Z }.q.a.",
"O @ z G.:.( Z & O $ 1 f 7 i | '.] % ` b % b b b b b b b b % ] $.%X-Xd.d.>.>.8.u & @ @ l i z '.] o ` ",
"< 7 0.| ! Y 8.3 O $ 1 O u ! q ] o % b b b b ` 0 0 ` ` b b % n ] q 2.-Xd.d.%X2.2.| 0.l 8.! q ] o b ` ",
"< 7 3 & i 0.l @ O $ $ @ Y j.P Q x.% % % % % % % % % % % % % o o <.q %X-X-XAX[ x #.u 0.Y j.P Q x.% % ",
"< 7 3 0.i i l @ O $ $ @ Y j.P Q T.0 0 b % n ] ] ] S.<.n % ` % n ] q 2.%X2.j.[ x #.u & Y ( P Q x.% % ",
"< @ i Y #.Z z l O $ 1 O i ! q x Q V.V.T.o ] '.$X).1Xi./ ` Q x.%.'.#.G.( j.( q #.| & l u Z $.%.<.o b ",
"O 3 z $.x j.Z & O $ 1 f < 0.| q P R.R.T.n }.v.u  XG k.F.0 V.[ 2.z | $.[ [ q Y i l @ @ 3 0.z $X%.o ` ",
"O 3 | ( P x ! & O $ 1 $ R @ -.G.[ V.V.0 <.'.z ^ ^ 1.p i.a.Q :.! u z $.e.e.$.z l 7 7 @ 3 & 8.$X%.o ` ",
"O 3 z $.H.%.Z & O $ 1 f s.^ v [.q.a.a.) 9Xy...w.&.G * u.9 ) U J.B ..;.) ) *Xv ^ W.@ l u Y 2.( <.% b ",
"< @ u ).;.[.B l O $ 1 R ~.v W ~ t l.l.t p.y.W k k O.4 K t 4.p.h.V W ~ 4.4.~ W m ^ W.& Y ( [ P x.% % ",
"< @ ^ 1.h G  XW.O $ 1 R ~.n.k 2 . h.h.. . . . . . . . . h.. . . . . V k V 2 5 k w.~.& Z ] T.T.0 % % ",
"&X@ cXiXzXzX,XW.< f $ $ P.C.,.&.0Xg g g g g y y y y y g g g g y y 0Xb.,.2Xn.2 V B & ~.r.VXPXZXn b x.",
"&X7 N.MX4XyXpXvX< eX$ E c c 7.} |.F 6 6 F 6 6 6 6 6 6 F F F 6 6 6 |.P.7./.2X5.V B & W.pXgXhX6XUX% x.",
"< :X>XyXsXOX>X:XO f 1 E B.wXc P.bXd.# # # # # # # # # # # # # # d.bXL.c 7.C.5.V v ~.:XfXOXsXhX6XZXn ",
"+.Q.fXOX.Xf.SXQ.+.qX1 1 7.7./.} b.3Xo.o.M M M M M M M M M M M M 6 <X} /.} 2Xk O.&.N.Q.dX .=.4XhX6X6X",
"!.!.SX*..Xf.=XdX#X;XE L.} ,.&.n.G `...D.C C C C C C C C C C C C C g n.&.n.5.2 h r.>X!.j 9.w OX4XCXCX",
"Y.N w =.f.f. .9.E.#XE O ^ m 2 d p , * e ; ; ; . 2 V V 2 V . . ; ; ; ; ; ;     h iX^.j j N 9. .f..X.X",
"j N 9. .*.*.=. .dX!.+.O b.I D Z.d s d > 5 2 I m n.&.2X&.n.m I V 5   + K K K   r ,X^.N N 9.w  .=.*.*.",
"j j N 9.w  .*.*.=X^.+.O b.I X D > > > X 2 I w.^ } /.7./.} ^ w...2   K K K K   r ,X^.N w =.*.=. .w w ",
"j j j j N w =.f.OX^.+.O b.D.g.+ 5 ;   + ; ..b.@ L.c c c L.@ ^ m ; + + 5   ~ g.h iX^.N w *.f.=.w 9.N ",
"N j Y.6.6.Y.w =.=X!.;XL.<X[.l.*XA D.h.4.;.).u 7 < P.P.P.< 7 i y ;.l.y.D.D.*Xl.1Xr.fXN 9.w  . .w w w ",
"N j 6.z.z.6.j w 9.6.t.7.o.%.H.}.v.3XJ.q.H.$.8.3 0.= #.= i 3 u G.:.:.[.B B G.:.S.M.>Xj Y.6.6.N w =.*.",
"j Y.6.z.' z.6.Y.E.z.t.7.g x P q z u ! x P ( | & | ( [ j.Y 0.z q P [ #.u 8.G.e.o VXpXE.z.z.z.E.=Xf..X",
"E.E.tXt.8Xt.tX!.Q.;Xc } mX:.[ }.B -.J.:.e.%.A.-.y q.e.:.J.-.v.q e.H.J.-.-.G.H.5XKX,XQ.tXm.].Q.yX4XsX",
"#X#X;X].m.B.qX:X{.cXC.&.. U U *XD...h.U 9 ;.A ..- l.) U h...A ;.9 U W 1.G y.U U ). XvXR eXU.{.MXgXgX",
"E E E E E f &XH 8.B 5.V   ~ ~ y.. W h.~ ~ g.; 2 ; g.p.~ h.. h.g.p.g.* r , e g.y.y _ |.H H |.-.1.BXBX",
"$ $ 1 1 1 U._.X.6 y W 8 > e e 2 - - C A A A A - A A A A - - - C A k h , a S d V A.o._ # _ o.A.O.k.k.",
"R R f $ $ U._.X.6 A.O.s s S h I g = M 3.3.3.= = 3.3.3.3.= = = M 3.0X`., T a p h `.m v v v ..W 1XIXF.",
"< < R $ $ eX_.X._ v h a a a h m o.# # # # # # # # # # # # # # # # o.m r T T a , , r r r r h 1XF.<.n ",
"7 7 R 1 E $ _.X._ v h a a a h m o.F # # # # # # # F F F # # # # F o.m h p a p , T T T M.M.J u.S.o ` ",
"@ 7 f E m.E U.X.F A.O.s s s * I g = = = = = = = = = = = = = = = = g I O.* * * S p T T M.M.a u.S.% x.",
"@ < $ m.8Xm.U.H F y W 8 > 8 4 ; . - - - - - - - - - - - - - - - - . ; 5 5 4 4 e * p T M.M.J u.S.o x.",
"7 O 1 m.8Xm.U.H 6 y .   D     5 8 8 5 X         X X X X X         X X 5 5 5   5 * p T T J k.L F.<.n ",
"R f 1 E B.1 &XX.6 y .   +   X 8 d d > D + K K K D Z.Z.Z.X D D D D X e e e 4 5 8 * , a k.u.L i.i.i.i.",
"$ $ $ $ f < _.X.6 y .   +   5 d S S d 8   + + D 8 d s s > X       8 d S S e 4 4 * , J u.F.S.F.u.k.k.",
"1 1 f R < 3 H >.F g W X D   4 d S p S e 2 V k 5.`.1.1.r O.5       4 * p p d 4 4 * , J L S.n S.u.k.J ",
"f f R O 7 3 H >.F A.O.e 8 X X > * S h r G &.,.C.C.{.cXlX`.2 + +   5 e * * e 5 4 * , J L / o <.F.L L ",
"O O O < 7 3 H >._ 0Xh S d X   X 8 * r 1.lX{.qXB.].].B./.&.V + +   5 4 4 4 5 X 4 * , J L / o o n / / ",
"s.s.s.7 7 3 H >._ v r , s 8   +   2 G r.N.+.].' @.' ' c ,.k + D X 5 X X       4 * , J L S.o o 5X) ) ",
"(.(.uX} @ 3 H >._ v r a s 8   +   2 G r.N.+.t.' @.@.' B.,.k D X e e 4 X       4 * , J L / o ) 7XI.I.",
"c.c.nXuXs.3 H X._ v r a s 8   +   2 G r.N.+.t.' @.@.' c ,.k X > S S e 5       4 * , J L / 5X7XjXkX@X",
": aXc.(.s.3 H X._ v r a s 8   +   2 G r.N.+.t.' @.@.' c ,.k 8 s , p * 4       4 * , J L / ) I.kXK.: ",
": : c.(.s.3 H X._ v r p s 8   +   2 G r.N.+.t.' @.@.' c ,.k 8 s T , * 4       4 * , J L / ) I.@X: { "
};
