/* XPM */
static char *b83f2408383548848bd2f3cc5b947243vHQihWVs9T8imga4[] = {
/* columns rows colors chars-per-pixel */
"50 50 256 2 ",
"   c #74CF45",
".  c #74CE44",
"X  c #76D545",
"o  c #75CC45",
"O  c #73D344",
"+  c #74D144",
"@  c #73CE43",
"#  c #75CF45",
"$  c #74D044",
"%  c #75CE44",
"&  c #7BD24A",
"*  c #76D345",
"=  c #5F4D4A",
"-  c #73CA44",
";  c #94E160",
":  c #8ADC57",
">  c #71605B",
",  c #81716C",
"<  c #74D140",
"1  c #7D6B68",
"2  c #98E464",
"3  c #7FB54A",
"4  c #78D048",
"5  c #957457",
"6  c #7A6964",
"7  c #907E78",
"8  c #76CD48",
"9  c #6AA93F",
"0  c #70CE40",
"q  c #71C543",
"w  c #4B3936",
"e  c #9FE86A",
"r  c #84D752",
"t  c #746261",
"y  c #776464",
"u  c #564545",
"i  c #6DB440",
"p  c #5C4848",
"a  c #50322A",
"s  c #5A463E",
"d  c #72BF45",
"f  c #5E4C42",
"g  c #8FE05B",
"h  c #675750",
"j  c #63524B",
"k  c #80D84E",
"l  c #6B5C56",
"z  c #776358",
"x  c #6E8C4C",
"c  c #6B4E30",
"v  c #7F5E36",
"b  c #8ED264",
"n  c #79C049",
"m  c #7CD64B",
"M  c #85DC53",
"N  c #96857E",
"B  c #6D6D51",
"V  c #84D157",
"C  c #52432F",
"Z  c #A37454",
"A  c #544340",
"S  c #77665F",
"D  c #503F3D",
"F  c #8C8E51",
"G  c #A89489",
"H  c #879D4D",
"J  c #62943A",
"K  c #8D7971",
"L  c #937B57",
"P  c #6F5B4C",
"I  c #816E68",
"U  c #638940",
"Y  c #442C20",
"T  c #594036",
"R  c #624838",
"E  c #9F8E89",
"W  c #625256",
"Q  c #513F44",
"!  c #412318",
"~  c #8B683A",
"^  c #4C2A21",
"/  c #D1B37D",
"(  c #73B249",
")  c #6C5856",
"_  c #5B5843",
"`  c #68A140",
"'  c #826055",
"]  c #65674A",
"[  c #94655A",
"{  c #593732",
"}  c #60733F",
"|  c #65A238",
" . c #7B4F48",
".. c #516329",
"X. c #98D673",
"o. c #4D3B2C",
"O. c #5C482F",
"+. c #6B8DC0",
"@. c #639AD1",
"#. c #D7B981",
"$. c #756E5D",
"%. c #96CB67",
"&. c #5C7F38",
"*. c #6F9D49",
"=. c #B2A095",
"-. c #AB9C93",
";. c #795B47",
":. c #8E9353",
">. c #8E7466",
",. c #B69643",
"<. c #735434",
"1. c #64653B",
"2. c #806B5D",
"3. c #A08A7E",
"4. c #4A4F61",
"5. c #D0DBB6",
"6. c #6FB6E0",
"7. c #90BAC4",
"8. c #87756E",
"9. c #799356",
"0. c #623C2F",
"q. c #6DBB40",
"w. c #565B3B",
"e. c #707653",
"r. c #78B74E",
"t. c #587036",
"y. c #C9B7A7",
"u. c #7B6839",
"i. c #B9E396",
"p. c #857D67",
"a. c #CCBDB2",
"s. c #868578",
"d. c #91684F",
"f. c #A4CF7F",
"g. c #687FA6",
"h. c #C0D5A3",
"j. c #63ABE0",
"k. c #C29D6B",
"l. c #D1B076",
"z. c #63533B",
"x. c #829A5E",
"c. c #A7EC70",
"v. c #73B947",
"b. c #61783A",
"n. c #87564B",
"m. c #93733A",
"M. c #779D4E",
"N. c #85C057",
"B. c #705247",
"V. c #A4813D",
"C. c #473725",
"Z. c #484351",
"A. c #719845",
"S. c #A38A66",
"D. c #534836",
"F. c #71C76D",
"G. c #4F5D70",
"H. c #B19067",
"J. c #74C558",
"K. c #5F6D7A",
"L. c #D6D9BE",
"P. c #B5A27B",
"I. c #AC885C",
"U. c #54552F",
"Y. c #576739",
"T. c #E1F0CF",
"R. c #707C4B",
"E. c #4E4739",
"W. c #557426",
"Q. c #423517",
"!. c #75AF40",
"~. c #6E433D",
"^. c #AB8D40",
"/. c #9B7D3C",
"(. c #799042",
"). c #9E796C",
"_. c #8C5E52",
"`. c #C6E4A9",
"'. c #7BA655",
"]. c #7D7E8D",
"[. c #858546",
"{. c #673E3D",
"}. c #56667C",
"|. c #7395B1",
" X c #8596B6",
".X c #607695",
"XX c #B9AB95",
"oX c #9A6D50",
"OX c #8F754D",
"+X c #A77B5D",
"@X c #C8A66F",
"#X c #BAB9A0",
"$X c #E6D1A1",
"%X c #494721",
"&X c #6FAA47",
"*X c #6F5941",
"=X c #6F8139",
"-X c #9FAC44",
";X c #6E663A",
":X c #729D9F",
">X c #AEAEB8",
",X c #7C654B",
"<X c #717783",
"1X c #B3D795",
"2X c #73B368",
"3X c #71977B",
"4X c #887546",
"5X c #8E949E",
"6X c #6B89B6",
"7X c #866D52",
"8X c #73B38A",
"9X c #C6C4A5",
"0X c #68BDDA",
"qX c #B99762",
"wX c #C5B496",
"eX c #B6B89C",
"rX c #E5C687",
"tX c #889F67",
"yX c #7E8664",
"uX c #9A7B60",
"iX c #534A56",
"pX c #89C245",
"aX c #626271",
"sX c #86BB8D",
"dX c #D6E6BF",
"fX c #7E795F",
"gX c #6CC4AC",
"hX c #596D87",
"jX c #6FBB9B",
"kX c #6CA6D1",
"lX c #6CAFB4",
"zX c #998365",
"xX c #A69971",
"cX c #B6A788",
"vX c #8CA86A",
"bX c #AAE47A",
"nX c #76B081",
"mX c #797574",
"MX c #8A8888",
"NX c #9BB369",
"BX c #77899E",
"VX c #5F8BBC",
"CX c #AAA8AA",
"ZX c #6CB7CA",
"AX c #6F9AC4",
"SX c #A7AE77",
"DX c #93A7B0",
"FX c #9DE16E",
"GX c #969862",
"HX c #79A5C2",
"JX c #71BA53",
"KX c #603F5C",
"LX c #73E445",
"PX c #76CF44",
"IX c #74CE45",
"UX c #74D545",
/* pixels */
"                        # # # # # # @ @ & : 2 e 2 r PX@ @ % % # # # #   @ 0 0 V i.T.T.`.X.4 0 @     ",
"                        # # # # # # @ @ 4 M ; e ; r & % % % % # # #       0 # b i.T.T.`.X.4 0 @     ",
"                          # # $ + + $ $ * k g ; ; : r m & * # # # #     # * m ; i.dXT.`.X.# 0 0     ",
"        .     # # # % %     $ + + + + + * m k M g g g : k * + $ # # . # 4 k : FXi.dXdX1Xb IX0 0     ",
"      . . . # # # # % % #   . IXo o o o 8 o 8 & r ; 2 ; r 8 - o %   @ # & : 2 bXi.5.5.1Xb 4 @       ",
"      . . . # # # % .   + + o d v.( ( r.r.r.( ( N.%.%.%.N.( v.d IX+ $ # k ; bXi.`.5.5.h.f.b V & # @ ",
"      . % % #     . @ . UXUX- ( A.x 9.x.x.9.x x 9.tXvXtX9.x *.( - O < $ V X.i.`.5.L.L.5.h.1XX.V 4 @ ",
"      % % %       # # # * IXd *.R.B $.p.p.fX$.B $.p.s.p.$.B R.*.d @ <   V f.h.5.L.L.L.L.5.h.f.b 4 0 ",
"      % % % .   4 & m & q i ` x B > y 1 , 6 t > t 6 1 1 t > e.x &Xd q o V X.1Xh.9X9X9X9X9Xh.f.b 4 0 ",
". . . # # % . # & M : V ( U } B $.6 y y y y y y y t t t y 6 $.e.x *.i q & b X.f.SXxXxXSXf.f.b V 4 @ ",
". . . # # . @ # m g 2 b M.Y._ h 6 , 1 > > S 1 , 1 t > t 1 , 1 $.B R.*.d 4 m V N.H [.4XF 3 V & 4 IX@ ",
". . . # # . @ PXk ; e %.9._ u = t 1 S z z 2.8.K >.2.2.2.I , 1 t > e.*.d $ UX$ d M.R.e.x ( - O $ IXIX",
"  # % % # . @ # k ; e %.x.] p p W ) z ' 7X5 uX).S.S.S.zX>.6 y y 6 fXM.n $ < < q 2X3X3X3XJX@ < $ IXIX",
"# # # % % . @ # k g e %.x.B = u u f P d.Z Z +X+XH.k.k.H.>.z > y , yX'.n $ < < J.8XlXlXjXF.8 < $     ",
"# # # % % . @ # m g 2 %.x.B = A D s B.d.Z Z Z Z I.qXk.H.L z > y , yX'.n IXIXJ.F.jXZX0XgXF.8 < PX    ",
"# # # % % . @   & M : N.9.] u Q A f ;.oXZ oX~ v ~ OXL L 2.S t y 1 yX'.d 8 J.2X8XlX0X0XgXF.8 < <     ",
"% % % # # #     * m & v.U _ D Q p h ' oXZ d.<.O.O.R z.P z 1 1 y > e.*.d J.2X:X|.kX6.0XgXF.8 < < # # ",
"% % % # # #     + * # i U w.D Q = P ' oXZ d.;.z.C o.C f 2.K K 6 l B A.n J.nX:X+.@.kXZXjXF.8 < PX# # ",
"% % # # # # #   + UX+ q.U _ u Q u = ;.oXZ +XzXp.B D.o.z.p.G 3.2.j 1.A.N.b 8X|.+.+.|.:XnXJ.8 < $ # # ",
"# # # #     # # + UX+ v.x ] = Q D s B.d.+Xk.wXwX3.P C P xXwXcX>.f w.A.b X.sX|.6Xg.].s.tXr.8 O $     ",
"# # #       $ # . - q &Xx ] j p u f ;.oXI./ $X$XXXfXz.7XP.$X#.zX*X1.(.%.X.sX:XBX].8.5 :.3 o O +     ",
"@ @ @ .   + * * q i | U } _ j P ,X7X5 I.k.#.$X$X#.S.OXI.l.rX#.H.OX4X:.NXNXsX8X3Xs.>.5 F 3 o O +     ",
"@ @ @ @ IX+ X + q.J t.U.E.E.f ,XuXqXk.@Xl.#.rXrX#.@XqXk.l.rX#.@XqXI.I.S.GXvX2X2Xx.L 5 F 3 o O +     ",
"4 4 4 # IXIXIXq 9 &.U.o.w w f 7XH.@Xl.l.l.l./ / / / / / / / #./ / @XH.+XL H r.r.H L 5 F 3 o O +     ",
"r r k & # q i ` U 1.z.T w w u z S.P.P.P.P.P.cXcXXXeX#X#XeXeXeX#X#XXX3.).5 [.A.A.[.5 5 :.3 o O +     ",
"2 ; : k 8 i J } 1.*X;.B.u Q Z.W mXs.s.s.s.MX5X5XDX7.7.7.7.7.7.7.7.DXE ).d.,X;X;X,Xd.5 :.3 o O +     ",
"c.e 2 M 8 9 b.z.R  ._.' h Z.Z.4.G.K.K.K.K..Xg.6XAXkX6.6.6.6.6.6.6.HX5X>._. .R R  ._.5 :.3 o O +     ",
"c.c.2 : 8 9 } s {. .[ [ ' W iX4.4.G.G.G.}.hX.Xg.VX@.j.j.j.j.j.j.j.AX].I  .{.a { ~.n.5 :.3 # O +     ",
"c.c.2 : 8 9 } s {. .[ [ [ ' ) W 4.4.4.G.}.}.hX.Xg.VX@.@.@.@.@.@.@.6X<X) {.a ! ^ 0.n.5 :.3 PXUX+     ",
"c.e 2 M 8 9 } s {. ._.[ [ [ ' W Z.Z.4.G.}.K.K.hX.Xg.+.+.+.+.+.+.6Xg.aXp { ^ ! ^ 0.n.5 :.3 - $ $     ",
"2 2 g M 8 9 t.C { ~.n._.n.n. .= Q Z.4.aX<X<X<X].BX X X X X X Xg..X}.iXw a ^ a 0. .[ uXF M.9 q.q IX+ ",
": M M k o | ..C.^ { ~.~.~.0.0.T u W t mXMXE -.-.CXCX>X>X>X>X5X].aXiXw Y ^ T B.2.>.).).p.R.&.J i - * ",
"& & m X - | ..Q.! ^ { T a ^ Y a s l 1 7 E =.#Xy.a.a.a.a.a.a.-., = C.! ! ^ B.>.3.G G 3.I h w.&.9 - X ",
". . * X - | ..Q.! ^ { { a Y Y o.s h 6 K 3.-.XXy.y.y.y.y.a.y.G 2.D.Y ! ! a P 7 G -.G N 6 p E.t.` q X ",
"@ . + * - | t.C.Y w s s T o.o.w A = ) S 8.N G =.=.=.=.=.=.=.N P C Y Y a s z 7 E E E 7 t p D Y.` q X ",
"# # * * - 9 t.E.w A = j j j f A D D p h > I K N N N N N N 7 I j C o.C f h S 8.7 7 7 8.> u E.t.` q X ",
"    * * - 9 t.E.w p l S S S l = D D p l 6 I , , , , , , , 1 > = D.D._ ] B $.6 1 1 1 6 l _ w.&.9 - * ",
"@ @ + UX- | ..C.a j I 7 7 7 , ) A A ) K N 7 , S t S S > l W j p f _ } x x e.l W W W h ] } U ` q.- * ",
"    * X - | ..Q.a B.K E G E 7 > u u 6 G XXG 8.> l l l h = u u p j ] x &X&XU _ Q Q Q f } J i q - IX$ ",
"& & m X - | W.%XC P K 3.E 3.7 > p = , -.wX-.K > h h j f A D D s j B M.n d J Y.E.w w D.b.9 - * *     ",
"g : M m . i J W.Y.] S 1 , I 6 ) = j I E =.G 7 6 l j p s T T T T s ] M.V r r.U t.w.O.z.=X!.$ X * # IX",
"e 2 g r # q q.9 J } _ p p = = = = h 6 7 N N 7 , > = A T R c c T C 1.M.b ; V v.` =X;X;X=X!.% UX+ % % ",
"e e ; : m 4 * - i U w.E.w w w A = l S I 8.8.8.1 > = A R <.v <.c O.1.(.N.b : & v.(.u.u.(.!.o O + % % ",
"; ; g g : M k & d ` &.Y.%XC.Y w = l z z z z > l j f R <.v ~ ~ v v u.R.9.'.n 8 n H 4X4X[.!.o + + % % ",
"k r : g ; g M & - d 9 J ..Q.! a f h P ;.;.*Xf s R R <.v m.V.V.V./.m.u.1.b.` d n H OXOXF 3 o + +     ",
"@ 4 r ; e 2 : & $ * - 9 W.Q.! a f P ;.v v <.O.O.O.c <.~ /.^.,.,.^./.u.U...J i n H L 5 F 3 o O +     ",
"0 # r ; e 2 : & * X * i W.%XY a R *Xu.~ ~ ~ v <.c c c u.[.-X-X-X-XH =Xb.&.| q.n H L 5 F 3 o O +     ",
"0 # r ; e 2 : & + UX+ i &.%XC.{ c v ~ /.V.V./.m.v c O.1.(.3 pXpXpX3 !.9 9 q.q n H L 5 F 3 o O +     ",
"@ 4 r ; e 2 : & $ O . i &.U.o.0.c v m.V.^.,.,.^.~ c C ..J d 4 4 o o - - - @   n H L 5 F 3 o O +     ",
"@ 4 r ; e 2 : & $ O . i &.U.o.0.c v m.^.,.,.,.,.m.c C ..J q UXUXO O UXX X UX+ n H L 5 F 3 o O +     "
};
